<svg xmlns="http://www.w3.org/2000/svg" version="1.1" xmlns:xlink="http://www.w3.org/1999/xlink" width="50" height="50" x="0" y="0" viewBox="0 0 510.94 510.94" style="enable-background:new 0 0 512 512" xml:space="preserve" class=""><g><path d="M422.347 210.707c0-91.393-73.468-165.626-164.567-166.861-92.09-1.249-168.402 73.322-169.181 165.417-.432 51.118 22.121 96.979 57.947 127.872 14.433 12.446 22.515 30.721 22.515 49.779v43.916h172.818v-43.024c0-19.569 8.304-38.306 23.069-51.151 35.168-30.594 57.399-75.674 57.399-125.948zM194.47 434.83c0 33.689 27.311 61 61 61s61-27.311 61-61M163.47 351.83h184" style="stroke-width:30;stroke-miterlimit:10;" fill="none" stroke="#e6af5d" stroke-width="30" stroke-miterlimit="10" data-original="#000000" opacity="1" class=""></path><path d="M166.47 200.83s38.143-61 89-61 89 61 89 61-38.143 61-89 61-89-61-89-61zM240.47 200.83h30M106.47 41.83 75.358 10.717M46.471 148.943 4.47 135.83M106.47 389.83l-31.112 31.113M46.471 282.83 4.47 295.943M404.47 41.83l31.113-31.113M464.47 148.943l42-13.113M404.47 389.83l31.113 31.113M464.47 282.83l42 13.113" style="stroke-width:30;stroke-miterlimit:10;" fill="none" stroke="#e6af5d" stroke-width="30" stroke-miterlimit="10" data-original="#000000" opacity="1" class=""></path></g></svg>